<svg width="580" height="400" xmlns="http://www.w3.org/2000/svg">
 <g>
  <title>Layer 1</title>
  <path d="m124.44368,52.899933c-2.000687,0 -2.01741,-0.140499 -11.003746,1.00034c-7.017159,0.890846 -14.270859,2.139736 -22.007492,5.001705c-2.097885,0.776058 -4.694145,2.186749 -6.002045,4.001358c-3.308746,4.590637 -11.783791,10.194054 -17.005791,16.005447c-2.410706,2.682793 -4.694141,4.187439 -6.002037,6.002045c-0.82719,1.147667 -2.459641,0.693672 -3.001022,2.000679c-0.382816,0.924194 0.439518,2.172668 1.00034,3.001022c3.020107,4.4608 10.965504,5.845352 22.007488,16.005447c8.864212,8.156258 16.6483,14.513634 25.008514,20.006813c6.740211,4.428741 17.262459,10.422409 22.007484,12.004089c0.94902,0.316345 2.000687,1.000336 3.001022,1.000336c0,0 -1.000336,0 -2.000671,0c-4.001366,0 -17.901566,6.199814 -31.010559,13.004425c-13.897102,7.213699 -29.009865,15.005127 -41.013962,21.007156c-2.000679,1.000336 -4.001358,2.000671 -6.002041,2.000671c-1.00034,0 -3.172653,2.829391 -6.002041,0c-1.414688,-1.414688 -3.001022,-3.001022 -4.001366,-4.001358c0,0 -1.00034,0 -1.00034,-1.000336l0,-1.000351l0,-1.000336" id="svg_14" stroke-width="1.5" stroke="#000" fill="none"/>
  <path d="m159.455597,50.899254c0,3.001019 1.126556,5.977623 3.001022,16.005447c4.291,22.955574 5.531845,36.586838 16.005447,76.025871c3.247726,12.229523 10.003403,31.010559 12.004074,39.013275c2.000687,8.002731 3.618561,12.080231 4.001373,13.004425c0.541382,1.307007 3.959702,-6.020615 12.004074,-24.008163c8.956726,-20.027588 23.845764,-52.108582 39.01329,-79.026901c11.877335,-21.079071 29.009872,-47.015999 34.011581,-57.019402l9.003052,-14.004768l2.000671,-4.001362l3.001038,-2.000681" id="svg_15" stroke-width="1.5" stroke="#000" fill="none"/>
  <path d="m418.543762,26.891081c0,0 -4.134674,0.830336 -8.002716,4.001362c-19.723145,16.1691 -27.708313,24.321173 -36.012268,32.010893c-6.766876,6.266342 -16.739746,11.320122 -26.00885,22.007492c-6.55426,7.557106 -9.346313,12.88044 -11.003723,18.006126c-2.537964,7.848892 -3.789612,16.044395 -3.001038,24.008171c1.507843,15.227798 6.382751,22.770782 10.003418,29.009872c3.368164,5.80397 6.224854,10.727661 10.003387,14.004776c4.274963,3.707642 6.714294,5.983658 12.004089,7.00238c6.876038,1.324203 13.298645,1.22287 24.008179,-2.000687c7.295074,-2.195801 18.233917,-10.699295 25.008514,-16.005447c7.260681,-5.686859 11.003754,-12.004089 12.004089,-14.004761c1.000336,-2.000687 1.000336,-6.002045 1.000336,-7.00238c0,-6.002045 -1.173492,-7.855423 -2.000671,-9.003067c-1.307922,-1.814621 -2.948364,-4.621574 -13.004425,-10.00341c-5.578094,-2.985313 -11.10321,-3.813713 -15.005127,-6.002037c-8.231079,-4.616272 -11.489227,-6.853477 -16.005432,-9.003067c-3.724182,-1.772606 -7.00238,-2.000679 -8.002747,-2.000679c-1.000336,0 -2.000671,0 -3.001007,0l-1.000336,0" id="svg_16" stroke-width="1.5" stroke="#000" fill="none"/>
  <path d="m125.444016,209.953384c1.000343,0 1.000343,0 1.000343,1.000336c0,3.001022 1.076775,5.995361 2.000679,17.005798c1.090622,12.997162 2.000687,20.006805 2.000687,25.008499c0,4.001373 0,6.002045 0,9.003082l0,1.000336" id="svg_20" stroke-width="1.5" stroke="#000" fill="none"/>
  <path d="m202.47023,210.95372c0,0 -2.694351,0.458969 -4.001358,1.000351c-2.772583,1.148453 -10.697083,3.459976 -12.004089,4.001358c-1.848373,0.765625 -5.388702,1.918259 -8.002716,3.001022c-0.92421,0.382813 -4.618896,2.076813 -5.001709,3.001022c-0.541382,1.307007 -2.487106,0.82402 -3.001022,3.001022c-0.229828,0.973572 0,3.001022 0,6.002045c0,7.00238 2.145035,10.937866 3.001022,13.004425c1.210556,2.922562 0.617523,3.077164 1.000336,4.001358c0.541382,1.307007 0.310867,2.080963 1.000351,5.001694c0.513916,2.177002 1.000336,3.001022 1.000336,4.001373c0,1.000336 0,2.000671 0,2.000671c-1.000336,0 -2.152985,1.235077 -4.001358,2.000702c-2.614014,1.082764 -6.002045,2.000671 -7.00238,2.000671c-3.001022,0 -3.001022,0 -4.001373,0l-1.000336,0" id="svg_21" stroke-width="1.5" stroke="#000" fill="none"/>
  <path d="m86.43074,363.005463c0,0 0,-3.001007 0,-8.002716c0,-4.001343 0.480713,-9.041809 0,-12.004089c-0.506714,-3.122498 -1.000343,-8.002716 -1.000343,-9.003052c0,-1.000336 0,-3.001038 0,-4.001373c0,-1.000336 0,-3.001007 0,-3.001007c0,-1.000336 0,-2.000671 0,-4.001373c0,0 0,-1.000336 0,-2.000671c0,-1.000336 0,-2.000671 0,-2.000671c0,-1.000366 0,-2.000702 0,-3.001038c0,-1.000336 0,-2.000671 0,-4.001373c0,-1.000336 0,-3.001007 0,-4.001343c0,-1.000336 0,-1.000336 0,-2.000671c0,-1.000366 0,-3.001038 0,-6.002045c0,-1.000366 0,-2.000702 0,-3.001038c0,-1.000336 0,-2.000671 0,-3.001007c0,-2.000702 0,-3.001038 0,-4.001373l0,-1.000336l0,-1.000336l0,-1.000336" id="svg_27" stroke-width="1.5" stroke="#8B4D4B" fill="none"/>
  <path d="m85.430397,290.980957c1.000343,0 1.000343,0 2.000679,0c1.000343,0 2.000687,0 3.001022,0c1.000343,0 3.001022,0 5.001701,0c3.001022,0 8.002724,0 10.00341,0c1.000336,0 3.001022,0 4.001358,0c1.000343,0 3.001022,0 4.001366,0c2.000679,0 4.001358,0 5.001701,0c2.000679,0 4.001358,0 5.001701,0c1.000343,0 2.000679,0 3.001022,0c0,0 1.000336,0 2.000679,0c2.000687,0 4.001358,0 6.002045,0c3.001022,0 6.002045,0 9.003067,0c2.000671,0 3.001022,0 4.001358,0l1.000336,0l1.000351,0" id="svg_28" stroke-width="1.5" stroke="#8B4D4B" fill="none"/>
  <path d="m85.430397,311.988098c1.000343,0 3.825043,0.48642 6.002045,1.000366c2.920738,0.689514 15.005104,1.000336 20.006805,1.000336c3.001022,0 6.880905,0.493622 10.00341,1.000336c0.987419,0.160248 3.001022,0 4.001358,0c1.000343,0 2.000679,0 4.001358,0c1.000351,0 1.000351,0 3.001022,0c1.000351,0 2.000687,0 4.001358,0c1.000351,0 2.000687,0 3.001022,0c1.000351,0 2.000687,0 3.001022,0l0,0l1.000351,0" id="svg_29" stroke-width="1.5" stroke="#8B4D4B" fill="none"/>
  <path d="m188.465469,283.978577c0,1.000336 0,2.000671 0,3.001038c0,0 -0.244446,2.015656 0,4.001343c0.503937,4.093628 1.498795,7.940674 2.000671,14.004761c0.57756,6.978516 1.000351,13.004425 2.000687,18.006134c1.000336,5.001709 1.433182,9.05722 2.000687,12.004089c1.018723,5.289795 2.22496,7.905518 3.001022,10.003418c1.430969,3.868286 2.15007,5.476135 3.001007,6.002045c1.902756,1.175964 1.694016,3.459961 3.001022,4.001343c0.92421,0.382813 2.824707,2.487091 5.001709,3.001038c1.947159,0.459686 5.001709,0 10.003403,0c2.000687,0 4.311462,-0.337646 7.00238,-2.000702c1.203415,-0.743744 3.001038,-2.000671 5.001709,-4.001343c2.000687,-2.000702 3.849274,-5.081451 6.002045,-9.003082c2.806854,-5.113159 5.914322,-14.035431 7.00238,-17.005768c1.852905,-5.058319 3.001022,-8.002747 3.001022,-11.003754c0,-7.00238 2.000687,-10.003418 2.000687,-13.004425c0,-2.000671 0,-3.001038 0,-4.001373c0,-2.000671 0,-3.001007 0,-3.001007c0,-1.000336 1.000336,-1.000336 1.000336,-2.000702c0,-1.000336 0,-2.000671 1.000336,-3.001007l0,-1.000336l0,-1.000336l0,-1.000336" id="svg_30" stroke-width="1.5" stroke="#729C62" fill="none"/>
  <path d="m294.501556,363.005463c0,-2.000671 -1.036316,-4.220795 2.000671,-16.005432c4.500427,-17.463318 10.385345,-32.273285 17.005798,-47.015991c3.665344,-8.162109 5.957184,-11.553101 7.00238,-15.005127c0.289886,-0.957428 0,-2.000671 1.000336,-2.000671c0,0 1.000336,0 1.000336,0c0,3.001007 -0.308868,5.073547 1.000336,10.003387c2.435791,9.17215 9.298676,27.896332 13.004456,38.012939c3.264191,8.911041 6.498413,15.913208 7.00238,20.006836c0.122223,0.992828 1.000336,3.001007 1.000336,4.001343c0,0 1.000336,0 1.000336,0c3.001007,-4.001343 6.195984,-12.443146 19.00647,-35.011902c7.537659,-13.279388 17.005798,-29.009888 18.006134,-31.010559l1.000336,-1.000336l1.000336,-1.000336l1.000336,0" id="svg_31" stroke-width="1.5" stroke="#6D97AB" fill="none"/>
  <path d="m449.554321,282.978241c0,1.000336 -0.458954,1.694 -1.000336,3.001007c-0.382813,0.924225 0.307556,3.187103 -1.000336,5.001709c-0.827179,1.147644 -0.770508,3.027802 -1.000336,4.001373c-1.027863,4.353973 -2.692169,8.074554 -4.001373,13.004425c-0.81192,3.057373 -2.000671,7.00238 -2.000671,7.00238c0,1.000336 0,2.000671 0,3.001007c0,1.000366 0.382813,1.076508 0,2.000702c-0.541382,1.307007 -1.486755,1.824341 -2.000702,4.001343c-0.229828,0.973602 0.289886,2.04361 0,3.001038c-1.045197,3.451996 -2.000671,4.001343 -2.000671,5.001709c0,1.000336 0.707336,2.293671 0,3.001007c-0.707336,0.707336 -1.293335,-0.707336 -2.000671,0c-0.707336,0.707336 0,2.000671 0,3.001038l0,1.000336" id="svg_32" stroke-width="1.5" stroke="#FFB27C" fill="none"/>
  <path d="m430.547852,359.00412c0,0 0,1.000336 1.000336,1.000336c1.000336,0 1.000336,-1.000336 1.000336,-1.000336c0,-1.000336 -0.292999,-1.293365 -1.000336,-2.000702c-0.707336,-0.707336 -1.000336,-1.000336 -1.000336,-1.000336c-1.000336,0 -1.000336,1.000336 -1.000336,2.000702c0,1.000336 -0.382813,1.076477 0,2.000671c0.541382,1.307007 1.000336,2.000671 3.001007,3.001007c0,0 1.000366,0 2.000702,0c1.000336,0 2.000671,0 2.000671,0c2.000671,0 2.000671,-4.001343 2.000671,-5.001678c0,-1.000366 0,-3.001038 0,-3.001038c-1.000336,0 -2.000671,-1.000336 -3.001007,-1.000336c-1.000336,0 -1.486755,0.824036 -2.000671,3.001007c-0.459656,1.947174 -0.707336,2.293701 0,3.001038c0.707336,0.707336 1.000336,0 1.000336,-1.000336c0,0 0,-2.000702 0,-4.001373c0,0 0,-1.000336 0,0c0,1.000336 -0.765625,2.152954 0,4.001373c1.082764,2.614014 1.694,3.459961 3.001007,4.001343c0.924194,0.382813 -0.007507,0.122223 -1.000336,0c-4.093628,-0.503937 -9.003052,-4.001312 -11.003754,-5.001678c-2.000671,-1.000336 -3.001007,-1.000366 -2.000671,-1.000366c1.000336,0 3.039795,-0.480713 6.002045,0c3.122498,0.506714 4.825409,1.486786 7.00238,2.000702c0.973572,0.229828 1.973907,0.229828 1.000336,0c-2.176971,-0.513916 -3.001007,-2.000702 -6.002045,-3.001038c-3.001007,-1.000336 -5.294678,-0.292969 -6.002045,-1.000336c-0.707336,-0.707336 1.013275,-1.160583 2.000702,-1.000336c3.122498,0.506714 5.883514,3.191345 9.003052,5.001709c1.934631,1.122711 5.294708,4.708679 6.002045,4.001343c0.707336,-0.707336 0.093719,-1.10379 -1.000336,-2.000671c-2.789276,-2.286652 -6.883881,-4.191711 -10.003418,-6.002045c-3.869293,-2.245422 -5.30835,-2.542053 -4.001343,-2.000671c0.924194,0.382813 2.882507,2.190979 6.002045,4.001343c1.934662,1.122742 3.001007,2.000702 4.001343,2.000702l1.000336,1.000336" id="svg_33" stroke-width="1.5" stroke="#FFB27C" fill="none"/>
 </g>
</svg>